REM DIRINDEX 1\2\4,1\2\5,1\3\6,1\3\7,1\3\8
REM DIRNAME cjc094,folder01,folder02,folder03,folder04,folder05,folder06,folder07
TITLE ""
FILE "LV3_047_WORDS.mp3" MP3
  TRACK 01 AUDIO
    TITLE "0:"
    INDEX 01 00:00:00
  TRACK 02 AUDIO
    TITLE "6:cjc094_1714"
    INDEX 01 00:00:07
  TRACK 03 AUDIO
    TITLE "0:"
    INDEX 01 00:01:73
  TRACK 04 AUDIO
    TITLE "7:cjc094_1715"
    INDEX 01 00:02:57
  TRACK 05 AUDIO
    TITLE "0:"
    INDEX 01 00:03:68
  TRACK 06 AUDIO
    TITLE "8:cjc094_1716"
    INDEX 01 00:04:11
  TRACK 07 AUDIO
    TITLE "0:"
    INDEX 01 00:06:10
  TRACK 08 AUDIO
    TITLE "7:cjc094_1717"
    INDEX 01 00:06:61
  TRACK 09 AUDIO
    TITLE "0:"
    INDEX 01 00:07:66
  TRACK 10 AUDIO
    TITLE "8:cjc094_1718"
    INDEX 01 00:08:01
  TRACK 11 AUDIO
    TITLE "0:"
    INDEX 01 00:10:41
  TRACK 12 AUDIO
    TITLE "7:cjc094_1719"
    INDEX 01 00:11:09
  TRACK 13 AUDIO
    TITLE "0:"
    INDEX 01 00:12:16
  TRACK 14 AUDIO
    TITLE "8:cjc094_1720"
    INDEX 01 00:12:32
  TRACK 15 AUDIO
    TITLE "0:"
    INDEX 01 00:14:70
  TRACK 16 AUDIO
    TITLE "7:cjc094_1721"
    INDEX 01 00:15:42
  TRACK 17 AUDIO
    TITLE "0:"
    INDEX 01 00:16:38
  TRACK 18 AUDIO
    TITLE "8:cjc094_1722"
    INDEX 01 00:16:53
  TRACK 19 AUDIO
    TITLE "0:"
    INDEX 01 00:19:65
  TRACK 20 AUDIO
    TITLE "7:cjc094_1723"
    INDEX 01 00:20:37
  TRACK 21 AUDIO
    TITLE "0:"
    INDEX 01 00:21:47
  TRACK 22 AUDIO
    TITLE "8:cjc094_1724"
    INDEX 01 00:21:68
  TRACK 23 AUDIO
    TITLE "0:"
    INDEX 01 00:28:12
  TRACK 24 AUDIO
    TITLE "7:cjc094_1725"
    INDEX 01 00:28:62
  TRACK 25 AUDIO
    TITLE "0:"
    INDEX 01 00:29:48
  TRACK 26 AUDIO
    TITLE "8:cjc094_1726"
    INDEX 01 00:29:74
  TRACK 27 AUDIO
    TITLE "0:"
    INDEX 01 00:33:62
  TRACK 28 AUDIO
    TITLE "7:cjc094_1727"
    INDEX 01 00:34:42
  TRACK 29 AUDIO
    TITLE "0:"
    INDEX 01 00:35:53
  TRACK 30 AUDIO
    TITLE "8:cjc094_1728"
    INDEX 01 00:35:74
  TRACK 31 AUDIO
    TITLE "0:"
    INDEX 01 00:40:62
  TRACK 32 AUDIO
    TITLE "7:cjc094_1729"
    INDEX 01 00:41:36
  TRACK 33 AUDIO
    TITLE "0:"
    INDEX 01 00:42:41
  TRACK 34 AUDIO
    TITLE "8:cjc094_1730"
    INDEX 01 00:42:57
  TRACK 35 AUDIO
    TITLE "0:"
    INDEX 01 00:44:38
  TRACK 36 AUDIO
    TITLE "7:cjc094_1731"
    INDEX 01 00:45:10
  TRACK 37 AUDIO
    TITLE "0:"
    INDEX 01 00:46:17
  TRACK 38 AUDIO
    TITLE "8:cjc094_1732"
    INDEX 01 00:46:35
  TRACK 39 AUDIO
    TITLE "0:"
    INDEX 01 00:48:28
  TRACK 40 AUDIO
    TITLE "7:cjc094_1733"
    INDEX 01 00:49:08
  TRACK 41 AUDIO
    TITLE "0:"
    INDEX 01 00:50:23
  TRACK 42 AUDIO
    TITLE "8:cjc094_1734"
    INDEX 01 00:50:44
  TRACK 43 AUDIO
    TITLE "0:"
    INDEX 01 00:53:68
  TRACK 44 AUDIO
    TITLE "7:cjc094_1735"
    INDEX 01 00:54:44
  TRACK 45 AUDIO
    TITLE "0:"
    INDEX 01 00:55:73
  TRACK 46 AUDIO
    TITLE "8:cjc094_1736"
    INDEX 01 00:56:16
  TRACK 47 AUDIO
    TITLE "0:"
    INDEX 01 00:59:26
  TRACK 48 AUDIO
    TITLE "7:cjc094_1737"
    INDEX 01 00:59:73
  TRACK 49 AUDIO
    TITLE "0:"
    INDEX 01 01:01:07
  TRACK 50 AUDIO
    TITLE "8:cjc094_1738"
    INDEX 01 01:01:29
  TRACK 51 AUDIO
    TITLE "0:"
    INDEX 01 01:02:40
  TRACK 52 AUDIO
    TITLE "7:cjc094_1739"
    INDEX 01 01:03:18
  TRACK 53 AUDIO
    TITLE "0:"
    INDEX 01 01:04:13
  TRACK 54 AUDIO
    TITLE "8:cjc094_1740"
    INDEX 01 01:04:33
  TRACK 55 AUDIO
    TITLE "0:"
    INDEX 01 01:06:63
  TRACK 56 AUDIO
    TITLE "7:cjc094_1741"
    INDEX 01 01:07:37
  TRACK 57 AUDIO
    TITLE "0:"
    INDEX 01 01:08:38
  TRACK 58 AUDIO
    TITLE "8:cjc094_1742"
    INDEX 01 01:08:48
  TRACK 59 AUDIO
    TITLE "0:"
    INDEX 01 01:10:39
